<svg xmlns="http://www.w3.org/2000/svg" xmlns:xlink="http://www.w3.org/1999/xlink"><defs><style>
    .sprite-symbol-usage {display: none;}
    .sprite-symbol-usage:target {display: inline;}
  </style><symbol id="icons"><symbol id="icons_check-mark" viewBox="0 0 45.701 45.7"><title>check-mark</title><path d="M20.687,38.332c-2.072,2.072-5.434,2.072-7.505,0L1.554,26.704c-2.072-2.071-2.072-5.433,0-7.504 c2.071-2.072,5.433-2.072,7.505,0l6.928,6.927c0.523,0.522,1.372,0.522,1.896,0L36.642,7.368c2.071-2.072,5.433-2.072,7.505,0 c0.995,0.995,1.554,2.345,1.554,3.752c0,1.407-0.559,2.757-1.554,3.752L20.687,38.332z" fill="green" /></symbol><symbol id="icons_close-cross" viewBox="0 0 41.756 41.756"><title>close-cross</title><path d="M27.948,20.878L40.291,8.536c1.953-1.953,1.953-5.119,0-7.071c-1.951-1.952-5.119-1.952-7.07,0L20.878,13.809L8.535,1.465 c-1.951-1.952-5.119-1.952-7.07,0c-1.953,1.953-1.953,5.119,0,7.071l12.342,12.342L1.465,33.22c-1.953,1.953-1.953,5.119,0,7.071 C2.44,41.268,3.721,41.755,5,41.755c1.278,0,2.56-0.487,3.535-1.464l12.343-12.342l12.343,12.343 c0.976,0.977,2.256,1.464,3.535,1.464s2.56-0.487,3.535-1.464c1.953-1.953,1.953-5.119,0-7.071L27.948,20.878z" fill="red" /></symbol><symbol id="icons_plus" viewBox="0 0 45.402 45.402"><title>plus</title><path d="M41.267,18.557H26.832V4.134C26.832,1.851,24.99,0,22.707,0c-2.283,0-4.124,1.851-4.124,4.135v14.432H4.141 c-2.283,0-4.139,1.851-4.138,4.135c-0.001,1.141,0.46,2.187,1.207,2.934c0.748,0.749,1.78,1.222,2.92,1.222h14.453V41.27 c0,1.142,0.453,2.176,1.201,2.922c0.748,0.748,1.777,1.211,2.919,1.211c2.282,0,4.129-1.851,4.129-4.133V26.857h14.435 c2.283,0,4.134-1.867,4.133-4.15C45.399,20.425,43.548,18.557,41.267,18.557z" fill="#FFFFFF" /></symbol><symbol id="icons_pencil-edit-button" viewBox="0 0 528.899 528.899"><title>pencil-edit-button</title><path d="M328.883,89.125l107.59,107.589l-272.34,272.34L56.604,361.465L328.883,89.125z M518.113,63.177l-47.981-47.981 c-18.543-18.543-48.653-18.543-67.259,0l-45.961,45.961l107.59,107.59l53.611-53.611 C532.495,100.753,532.495,77.559,518.113,63.177z M0.3,512.69c-1.958,8.812,5.998,16.708,14.811,14.565l119.891-29.069 L27.473,390.597L0.3,512.69z" fill="#000" /></symbol><symbol id="icons_cancel" viewBox="0 0 45.959 45.959"><title>cancel</title><path d="M39.229,6.731c-8.975-8.974-23.523-8.974-32.498,0s-8.974,23.523,0,32.498c8.974,8.974,23.523,8.974,32.497-0.001 C48.202,30.254,48.203,15.704,39.229,6.731z M32.363,26.711c1.561,1.561,1.561,4.092,0,5.651c-1.562,1.561-4.092,1.561-5.652,0 l-3.748-3.749l-3.74,3.74c-1.561,1.562-4.074,1.578-5.635,0.019c-1.56-1.561-1.542-4.073,0.019-5.635l3.74-3.74L13.6,19.251 c-1.561-1.561-1.567-4.098-0.006-5.658s4.096-1.556,5.656,0.005l3.749,3.749l3.74-3.74c1.561-1.561,4.073-1.578,5.634-0.019 c1.561,1.561,1.543,4.074-0.019,5.635l-3.739,3.74L32.363,26.711z" fill="#000" /></symbol><symbol id="icons_shopping-cart" viewBox="0 0 510 510"><title>shopping-cart</title><path d="M153,408c-28.05,0-51,22.95-51,51s22.95,51,51,51s51-22.95,51-51S181.05,408,153,408z M0,0v51h51l91.8,193.8L107.1,306 c-2.55,7.65-5.1,17.85-5.1,25.5c0,28.05,22.95,51,51,51h306v-51H163.2c-2.55,0-5.1-2.55-5.1-5.1v-2.551l22.95-43.35h188.7 c20.4,0,35.7-10.2,43.35-25.5L504.9,89.25c5.1-5.1,5.1-7.65,5.1-12.75c0-15.3-10.2-25.5-25.5-25.5H107.1L84.15,0H0z M408,408 c-28.05,0-51,22.95-51,51s22.95,51,51,51s51-22.95,51-51S436.05,408,408,408z" fill="#FFFFFF" /></symbol></symbol></defs><use id="icons-usage" xlink:href="#icons" class="sprite-symbol-usage" /></svg>